<svg height="464pt" viewBox="0 0 464 464" width="464pt" xmlns="http://www.w3.org/2000/svg"><path d="m464 232c0 128.128906-103.871094 232-232 232s-232-103.871094-232-232 103.871094-232 232-232 232 103.871094 232 232zm0 0" fill="#ccc"/><path d="m376 232c0 79.527344-64.472656 144-144 144s-144-64.472656-144-144 64.472656-144 144-144 144 64.472656 144 144zm0 0" fill="#e6e6e6"/><path d="m115.785156 136h260.214844l-130.105469-130.105469zm0 0" fill="#fce9c0"/><path d="m272 104c-3.234375 0-6.152344-1.949219-7.390625-4.9375s-.550781-6.429688 1.734375-8.71875l8-8c3.140625-3.03125 8.128906-2.988281 11.214844.097656 3.085937 3.085938 3.128906 8.074219.097656 11.214844l-8 8c-1.5 1.5-3.535156 2.34375-5.65625 2.34375zm0 0" fill="#c69c6d"/><path d="m240 96 184 184v-184zm0 0" fill="#fbe3a9"/><path d="m388.214844 210.113281c-2.121094 0-4.15625-.84375-5.65625-2.34375l-72-72c-3.03125-3.140625-2.988282-8.128906.097656-11.214843 3.085938-3.085938 8.078125-3.128907 11.214844-.097657l72 72c2.289062 2.285157 2.972656 5.726563 1.734375 8.714844-1.238281 2.992187-4.15625 4.9375-7.390625 4.941406zm0 0" fill="#c69c6d"/><path d="m392 160c-2.121094 0-4.15625-.84375-5.65625-2.34375l-24-24c-3.03125-3.140625-2.988281-8.128906.097656-11.214844 3.085938-3.085937 8.074219-3.128906 11.214844-.097656l24 24c2.285156 2.289062 2.972656 5.730469 1.734375 8.71875s-4.15625 4.9375-7.390625 4.9375zm0 0" fill="#c69c6d"/><path d="m344 288c-13.253906 0-24 10.746094-24 24 0 8.226562-1.59375 16.378906-4.695312 24h20.695312v16h-30.078125c-2.171875 2.679688-4.554687 5.183594-7.121094 7.488281l18.855469 18.855469-11.3125 11.3125-20.878906-20.878906c-4.28125 2.214844-8.796875 3.933594-13.464844 5.125v26.097656h-16v-24h-24c-13.253906 0-24 10.746094-24 24s10.746094 24 24 24h24c61.855469 0 112-50.144531 112-112 0-13.253906-10.746094-24-24-24zm0 0" fill="#f7996a"/><g fill="#f4806d"><path d="m272 400v-26.097656c-5.222656 1.375-10.597656 2.078125-16 2.097656v24zm0 0"/><path d="m336 336h-20.695312c-2.335938 5.761719-5.496094 11.148438-9.382813 16h30.078125zm0 0"/><path d="m317.65625 378.34375-18.855469-18.855469c-4.035156 3.65625-8.515625 6.785157-13.335937 9.3125l20.878906 20.878907zm0 0"/></g><path d="m200 112c-3.234375 0-6.152344-1.949219-7.390625-4.9375s-.550781-6.429688 1.734375-8.71875l48-48c3.140625-3.03125 8.128906-2.988281 11.214844.097656 3.085937 3.085938 3.128906 8.074219.097656 11.214844l-48 48c-1.5 1.5-3.535156 2.34375-5.65625 2.34375zm0 0" fill="#c69c6d"/><path d="m296 264c0 53.015625-114.984375 96-168 96-53.019531 0-96-42.980469-96-96 0-53.015625 42.984375-112 96-112s168 58.984375 168 112zm0 0" fill="#f2f2f2"/><path d="m176 264c0 30.929688-25.070312 56-56 56s-56-25.070312-56-56 25.070312-56 56-56 56 25.070312 56 56zm0 0" fill="#f29200"/></svg>