<svg height="512pt" viewBox="0 -46 512 512" width="512pt" xmlns="http://www.w3.org/2000/svg"><path d="m428 327.597656h-344c0-20.113281 3.46875-39.421875 9.839844-57.371094 23.671875-66.71875 87.429687-114.628906 162.160156-114.628906 74.71875 0 138.460938 47.886719 162.148438 114.589844 6.382812 17.957031 9.851562 37.289062 9.851562 57.410156zm0 0" fill="#f0e7df"/><path d="m428 327.597656h-172v-172c74.71875 0 138.460938 47.886719 162.148438 114.589844 6.382812 17.957031 9.851562 37.289062 9.851562 57.410156zm0 0" fill="#dfcdbd"/><path d="m231.691406 126.285156-14.914062-26.027344-.148438.085938c2.191406-1.328125 8.152344-6.132812 9.402344-12.328125.992188-4.902344-.949219-10.75-5.765625-17.382813-10.425781-14.363281-14.007813-28.429687-10.640625-41.8125 4.808594-19.101562 21.984375-27.882812 23.925781-28.820312l13.046875 27.015625.179688-.089844c-.066406.035157-6.742188 3.640625-8.089844 9.347657-1.277344 5.40625 2.476562 12.082031 5.855469 16.734374 12.554687 17.296876 12.796875 32.089844 10.789062 41.453126-4.34375 20.253906-21.679687 30.699218-23.640625 31.824218zm0 0" fill="#dfcdbd"/><path d="m296.835938 126.285156-14.914063-26.027344-.148437.085938c2.191406-1.328125 8.152343-6.132812 9.402343-12.328125.988281-4.902344-.949219-10.75-5.765625-17.382813-10.425781-14.363281-14.007812-28.429687-10.640625-41.8125 4.808594-19.101562 21.984375-27.882812 23.925781-28.820312l13.046876 27.015625.179687-.089844c-.066406.035157-6.738281 3.640625-8.089844 9.347657-1.277343 5.40625 2.480469 12.082031 5.855469 16.734374 12.554688 17.296876 12.796875 32.089844 10.789062 41.453126-4.34375 20.253906-21.679687 30.699218-23.640624 31.824218zm0 0" fill="#c8ad92"/><path d="m418.160156 270.1875c-18.878906 15.167969-42.429687 12.699219-59.808594-7.441406l-.390624-.460938c-19.722657-22.871094-47.421876-22.980468-67.222657-.269531l-1.136719 1.300781c-9.890624 11.339844-21.75 16.988282-33.601562 16.960938-11.871094-.042969-23.730469-5.78125-33.589844-17.210938l-.648437-.761718c-19.730469-22.867188-47.472657-22.957032-67.25-.199219l-.910157 1.03125c-17.390624 20-40.910156 22.359375-59.761718 7.089843 23.679687-66.71875 87.429687-114.628906 162.160156-114.628906h.011719c74.71875 0 138.457031 47.886719 162.148437 114.589844zm0 0" fill="#ff8900"/><path d="m131.390625 234.476562c-19.394531-19.398437-47.359375-24.542968-65.6875-25.664062-.15625-.007812-.3125-.019531-.46875-.027344-.828125-.050781-1.640625-.089844-2.425781-.121094-.019532-.003906-.039063-.003906-.058594-.003906-8.867188-.363281-14.90625.1875-15.621094.257813l-6.382812.628906-5.871094.578125-.730469 7.453125-.476562 4.800781c-.042969.46875-.296875 3.238282-.363281 7.59375-.113282 7.515625.335937 19.761719 3.382812 33.117188 3.382812 14.816406 9.960938 30.996094 22.53125 43.566406 22.910156 22.910156 57.78125 25.941406 74.589844 25.941406 5.550781 0 9.128906-.328125 9.671875-.378906l12.25-1.210938.09375-.984374 1.113281-11.265626c.210938-2.191406 4.914062-53.8125-25.546875-84.28125zm0 0" fill="#6ecd24"/><path d="m156.941406 318.757812-1.210937 12.25-120.851563-120.882812 12.25-1.210938c2.179688-.207031 53.800782-4.90625 84.261719 25.5625s25.757813 82.089844 25.550781 84.28125zm0 0" fill="#66bd21"/><path d="m512 321.90625v53.039062c0 25.28125-20.570312 45.851563-45.851562 45.851563h-420.296876c-25.28125 0-45.851562-20.570313-45.851562-45.851563v-53.039062zm0 0" fill="#ff633d"/><path d="m256 280.277344v-124.679688h.011719c74.71875 0 138.457031 47.886719 162.148437 114.589844-18.878906 15.167969-42.429687 12.699219-59.808594-7.441406l-.390624-.460938c-19.722657-22.871094-47.421876-22.980468-67.222657-.269531l-1.136719 1.300781c-9.890624 11.339844-21.75 16.988282-33.601562 16.960938zm0 0" fill="#e67500"/><path d="m512 321.90625v53.039062c0 25.28125-20.570312 45.851563-45.851562 45.851563h-210.148438v-98.890625zm0 0" fill="#e70021"/></svg>