<?xml version="1.0" encoding="iso-8859-1"?>
<!-- Generator: Adobe Illustrator 19.0.0, SVG Export Plug-In . SVG Version: 6.00 Build 0)  -->
<svg version="1.1" id="Capa_1" xmlns="http://www.w3.org/2000/svg" xmlns:xlink="http://www.w3.org/1999/xlink" x="0px" y="0px"
	 viewBox="0 0 510.147 510.147" style="enable-background:new 0 0 510.147 510.147;" xml:space="preserve">
<path style="fill:#EF9B85;" d="M358.232,286.635c-52.224,0-94.562,34.386-94.562,94.564h34.386
	c0-34.386,26.941-60.177,60.176-60.177c33.234,0,60.176,25.791,60.176,60.177h34.386
	C452.795,321.022,410.456,286.635,358.232,286.635z"/>
<path style="fill:#E55934;" d="M358.232,355.408c14.244,0,25.79,8.598,25.79,25.791h34.386c0-34.386-26.943-60.177-60.177-60.177
	c-33.235,0-60.177,25.791-60.177,60.177h34.386C332.443,364.006,343.988,355.408,358.232,355.408z"/>
<path style="fill:#EF9B85;" d="M358.232,355.408c-14.244,0-25.79,8.598-25.79,25.791h51.579
	C384.022,364.006,372.476,355.408,358.232,355.408z"/>
<path style="fill:#F5BB00;" d="M481.67,366.052c-3.85-1.307-7.797-1.659-11.7-1.436c0-0.206,0.018-0.404,0.018-0.61
	c0-42.734-19.247-77.37-42.984-77.37c-23.736,0-42.983,34.636-42.983,77.37c0,0.326,0.025,0.637,0.025,0.963
	c-5.26-0.507-10.599,0.111-15.637,2.329c-17.374,7.661-28.773,29.719-20.16,49.268c7.497,16.979,27.174,26.443,35.771,23.624v44.168
	h68.773v-44.04c17.193,2.949,38.425-8.047,44.719-26.59C504.375,393.5,499.655,372.154,481.67,366.052z"/>
<g>
	<path style="fill:#F7C933;" d="M401.216,448.785c-4.066,1.332-10.626-0.164-17.193-3.835v22.214h17.193V448.785z"/>
	<path style="fill:#F7C933;" d="M365.453,425.161c-8.622-19.547,2.777-41.606,20.16-49.267c5.037-2.218,10.367-2.837,15.637-2.329
		c-0.009-0.326-0.034-0.636-0.034-0.963c0-42.733,19.247-77.37,42.983-77.37c0.921,0,1.822,0.146,2.725,0.25
		c-5.958-5.623-12.723-8.847-19.919-8.847c-23.736,0-42.983,34.636-42.983,77.37c0,0.326,0.025,0.637,0.025,0.964
		c-5.26-0.507-10.599,0.111-15.637,2.329c-17.374,7.661-28.773,29.719-20.16,49.268c5.889,13.35,19.247,21.947,28.893,23.684
		C372.407,436.311,368.135,431.249,365.453,425.161z"/>
	<path style="fill:#F7C933;" d="M492.778,373.35c-1.625-1.821-3.559-3.362-5.708-4.677c0.034,1.306,0.112,2.605,0.112,3.929
		c0,0.206-0.018,0.404-0.018,0.61C489.03,373.11,490.912,373.153,492.778,373.35z"/>
	<path style="fill:#F7C933;" d="M456.233,391.514l-20.631,15.474v-42.983c0-4.745-3.843-8.597-8.598-8.597
		c-4.754,0-8.595,3.852-8.595,8.599v42.983l-20.632-15.474c-3.783-2.854-9.181-2.071-12.027,1.72
		c-2.855,3.799-2.08,9.189,1.72,12.035l30.948,23.21v30.088c0,4.745,3.841,8.597,8.597,8.597s8.597-3.852,8.597-8.597V428.48
		l30.948-23.21c3.8-2.846,4.573-8.236,1.719-12.035C465.424,389.435,460.023,388.661,456.233,391.514z"/>
</g>
<path style="fill:#B88C00;" d="M486.879,510.147H23.266c-9.619,0-17.493-7.736-17.493-17.193V475.76h498.602v17.193
	C504.375,502.411,496.499,510.147,486.879,510.147z"/>
<g>
	<rect x="117.532" y="475.757" style="fill:#C6A333;" width="34.385" height="34.385"/>
	<rect x="169.106" y="475.757" style="fill:#C6A333;" width="17.193" height="34.385"/>
	<rect x="203.492" y="475.757" style="fill:#C6A333;" width="17.193" height="34.385"/>
</g>
<path style="fill:#AC4327;" d="M368.221,384.654L255.073,303.83l-0.009,0.025c-24.474-36.312-65.969-60.201-113.053-60.201
	c-75.247,0-136.239,60.992-136.239,136.239c0,75.236,60.993,95.869,136.239,95.869c6.397,0,12.636-0.215,18.793-0.533l-0.292,0.533
	l199.088-15.93c8.941-0.713,15.826-8.175,15.826-17.133V398.65C375.426,393.087,372.743,387.878,368.221,384.654z"/>
<path style="fill:#BD6952;" d="M142.011,260.847c72.289,0,131.269,56.351,135.8,127.495c0.18-2.785,0.438-5.501,0.438-8.449
	c0-75.246-61.002-136.239-136.239-136.239c-75.237,0-136.239,60.992-136.239,136.239c0,2.948,0.258,5.673,0.438,8.449
	C10.741,317.197,69.722,260.847,142.011,260.847z"/>
<path style="fill:#E55934;" d="M243.089,374.683c0,55.825-45.253,71.128-101.078,71.128c-55.827,0-101.079-15.302-101.079-71.128
	c0-55.827,45.253-101.079,101.079-101.079C197.837,273.604,243.089,318.857,243.089,374.683z"/>
<g>
	<path style="fill:#FAF3F1;" d="M147.135,340.993c-4.607,0-8.88,1.436-12.414,3.859c-3.533-2.424-7.805-3.859-12.413-3.859
		c-12.138,0-21.973,9.834-21.973,21.971c0,12.138,9.835,15.466,21.973,15.466c4.607,0,8.88-0.49,12.413-1.755
		c3.534,1.264,7.807,1.755,12.414,1.755c12.138,0,21.973-3.327,21.973-15.466C169.108,350.827,159.273,340.993,147.135,340.993z"/>
	<path style="fill:#FAF3F1;" d="M504.375,402.69c0-16.617-13.471-30.088-30.089-30.088c-16.617,0-30.088,13.471-30.088,30.088
		c0,1.47,0.241,2.879,0.438,4.298h-69.211v34.386h69.211c-0.198,1.419-0.438,2.829-0.438,4.298
		c0,16.617,13.471,30.088,30.088,30.088c16.618,0,30.089-13.47,30.089-30.088c0-8.434-3.492-16.033-9.079-21.492
		C500.883,418.722,504.375,411.124,504.375,402.69z"/>
</g>
<path style="fill:#9BC53D;" d="M285.496,372.653c-11.838,20.572-12.749,46.689-0.034,68.721
	c12.715,22.033,35.796,34.301,59.532,34.334c11.839-20.571,12.75-46.689,0.036-68.721
	C332.313,384.955,309.233,372.689,285.496,372.653z"/>
<path style="fill:#AFD164;" d="M341.047,477.445c-2.974,0-5.862-1.539-7.453-4.298l-30.088-52.112
	c-2.373-4.117-0.963-9.37,3.146-11.743c4.101-2.373,9.361-0.962,11.744,3.146l30.088,52.112c2.372,4.119,0.963,9.371-3.146,11.743
	C343.988,477.076,342.508,477.445,341.047,477.445z"/>
<path style="fill:#9BC53D;" d="M208.128,372.653c-11.837,20.572-12.748,46.689-0.035,68.721
	c12.714,22.033,35.797,34.301,59.531,34.334c11.838-20.571,12.75-46.689,0.036-68.721
	C254.936,384.955,231.863,372.689,208.128,372.653z"/>
<path style="fill:#AFD164;" d="M263.679,477.445c-2.975,0-5.863-1.539-7.454-4.298l-30.088-52.112
	c-2.373-4.117-0.963-9.37,3.146-11.743c4.119-2.381,9.362-0.962,11.743,3.146l30.088,52.112c2.373,4.119,0.963,9.371-3.146,11.743
	C266.619,477.076,265.14,477.445,263.679,477.445z"/>
<g>
	<path style="fill:#E55934;" d="M160.511,183.477c-2.27,0-4.531-0.893-6.224-2.665l-43.748-45.905
		c-15.105-16.187-22.962-37.205-22.196-59.239C89.11,53.634,98.41,33.21,114.528,18.173c27.32-25.471,70.277-23.992,95.766,3.335
		c10.187,10.927,15.516,25.162,15.001,40.096c-0.524,14.924-6.817,28.764-17.743,38.951c-18.733,17.476-48.193,16.445-65.661-2.287
		c-3.241-3.473-3.053-8.915,0.421-12.148c3.473-3.241,8.906-3.043,12.147,0.422c11.02,11.812,29.563,12.447,41.368,1.435
		c7.564-7.057,11.932-16.643,12.293-26.976c0.361-10.333-3.327-20.203-10.385-27.758c-19.016-20.382-51.064-21.499-71.463-2.485
		c-12.766,11.907-20.126,28.077-20.736,45.52c-0.601,17.442,5.622,34.085,17.529,46.85l43.688,45.837
		c3.276,3.439,3.146,8.88-0.292,12.156C164.775,182.686,162.644,183.477,160.511,183.477z"/>
	<path style="fill:#E55934;" d="M194.897,217.863c-2.201,0-4.402-0.842-6.079-2.519l-8.597-8.597c-3.362-3.362-3.362-8.794,0-12.155
		c3.362-3.362,8.795-3.362,12.155,0l8.597,8.597c3.362,3.361,3.362,8.795,0,12.155C199.298,217.022,197.098,217.863,194.897,217.863
		z"/>
	<path style="fill:#E55934;" d="M309.189,226.641c-2.132,0-4.264-0.79-5.923-2.373c-3.439-3.274-3.569-8.716-0.292-12.155
		l37.284-39.114c9.851-10.565,15.036-24.414,14.528-38.943c-0.515-14.529-6.637-27.991-17.27-37.902
		c-8.167-7.624-18.861-11.64-29.976-11.218c-11.167,0.387-21.51,5.097-29.126,13.265c-5.785,6.198-8.803,14.278-8.511,22.747
		c0.292,8.476,3.869,16.325,10.067,22.101c9.55,8.906,24.559,8.374,33.458-1.16c3.249-3.464,8.673-3.663,12.155-0.421
		c3.465,3.232,3.662,8.673,0.422,12.147c-15.371,16.48-41.298,17.358-57.752,2.012c-9.56-8.915-15.077-21.019-15.534-34.077
		c-0.456-13.067,4.205-25.523,13.119-35.074c10.753-11.528,25.341-18.173,41.1-18.724c15.637-0.619,30.774,5.072,42.304,15.825
		c13.986,13.05,22.049,30.76,22.72,49.878s-6.155,37.352-19.197,51.339l-37.351,39.184
		C313.719,225.747,311.458,226.641,309.189,226.641z"/>
</g>
<g>
</g>
<g>
</g>
<g>
</g>
<g>
</g>
<g>
</g>
<g>
</g>
<g>
</g>
<g>
</g>
<g>
</g>
<g>
</g>
<g>
</g>
<g>
</g>
<g>
</g>
<g>
</g>
<g>
</g>
</svg>
