<?xml version="1.0" encoding="iso-8859-1"?>
<!-- Generator: Adobe Illustrator 19.0.0, SVG Export Plug-In . SVG Version: 6.00 Build 0)  -->
<svg version="1.1" id="Layer_1" xmlns="http://www.w3.org/2000/svg" xmlns:xlink="http://www.w3.org/1999/xlink" x="0px" y="0px"
	 viewBox="0 0 512 512" style="enable-background:new 0 0 512 512;" xml:space="preserve">
<path style="fill:#B25719;" d="M255.998,512c-4.844,0-8.769-3.926-8.769-8.769v-75.844c0-4.843,3.925-8.769,8.769-8.769
	s8.769,3.926,8.769,8.769v75.844C264.767,508.074,260.841,512,255.998,512z"/>
<path style="fill:#F94848;" d="M424.958,343.162v57.164c0,34.54-75.65,62.555-168.956,62.555c-34.247,0-66.121-3.777-92.745-10.266
	c-45.905-11.178-76.211-30.424-76.211-52.289v-57.164H424.958z"/>
<path style="fill:#E23D3D;" d="M163.258,343.162v109.453c-45.905-11.178-76.211-30.424-76.211-52.289v-57.164H163.258z"/>
<path style="fill:#F96B6B;" d="M398.908,309.78c16.498,9.658,26.051,21.105,26.051,33.382c0,34.551-75.65,62.555-168.956,62.555
	c-93.318,0-168.956-28.003-168.956-62.555c0-12.265,9.541-23.724,26.039-33.382"/>
<path style="fill:#FFD41D;" d="M398.908,278.982v46.115c0,29.219-63.981,52.908-142.905,52.908c-31.815,0-61.187-3.847-84.934-10.36
	c-35.183-9.635-57.983-25.104-57.983-42.549v-46.115H398.908z"/>
<g>
	<path style="fill:#EFC71D;" d="M398.908,278.982v24.554c-29.933,17.527-82.748,29.173-142.905,29.173
		c-60.169,0-112.984-11.646-142.917-29.173v-24.554H398.908z"/>
	<path style="fill:#EFC71D;" d="M171.068,278.982v88.664c-35.183-9.635-57.983-25.104-57.983-42.549v-46.115H171.068z"/>
</g>
<path style="fill:#F94848;" d="M87.042,235.209v10.388c0,34.548,75.644,62.555,168.956,62.555s168.956-28.007,168.956-62.555
	v-10.388c0-34.548-37.201-153.931-168.956-153.931S87.042,200.661,87.042,235.209z"/>
<path style="fill:#E23D3D;" d="M167.72,245.598V235.21c0-30.725,29.428-128.543,128.617-149.817
	c-12.341-2.647-25.76-4.115-40.339-4.115c-131.755,0-168.956,119.384-168.956,153.931v10.388c0,34.548,75.644,62.555,168.956,62.555
	c13.905,0,27.412-0.627,40.339-1.799C222.505,299.656,167.72,274.997,167.72,245.598z"/>
<path style="fill:#B25719;" d="M255.998,111.078c-4.844,0-8.769-3.926-8.769-8.769V8.769c0-4.843,3.925-8.769,8.769-8.769
	s8.769,3.926,8.769,8.769v93.54C264.767,107.152,260.841,111.078,255.998,111.078z"/>
<ellipse transform="matrix(-0.7071 -0.7071 0.7071 -0.7071 488.5106 512.2034)" style="fill:#FC8181;" cx="350.336" cy="154.928" rx="33.323" ry="16.954"/>
<g>
</g>
<g>
</g>
<g>
</g>
<g>
</g>
<g>
</g>
<g>
</g>
<g>
</g>
<g>
</g>
<g>
</g>
<g>
</g>
<g>
</g>
<g>
</g>
<g>
</g>
<g>
</g>
<g>
</g>
</svg>
